<?xml version="1.0" encoding="UTF-8"?>
<svg xmlns="http://www.w3.org/2000/svg" xmlns:xlink="http://www.w3.org/1999/xlink" width="32px" height="32px" viewBox="0 0 32 32" version="1.1">
<g id="surface1">
<path style=" stroke:none;fill-rule:nonzero;fill:rgb(0%,32.156863%,100%);fill-opacity:1;" d="M 32 16 C 32 24.835938 24.835938 32 16 32 C 7.164062 32 0 24.835938 0 16 C 0 7.164062 7.164062 0 16 0 C 24.835938 0 32 7.164062 32 16 Z M 32 16 "/>
<path style=" stroke:none;fill-rule:nonzero;fill:rgb(100%,100%,100%);fill-opacity:1;" d="M 16.132812 11.308594 C 18.019531 11.308594 19.511719 12.46875 20.078125 14.195312 L 23.875 14.195312 C 23.1875 10.503906 20.140625 8 16.164062 8 C 11.652344 8 8.125 11.425781 8.125 16.015625 C 8.125 20.605469 11.5625 24 16.164062 24 C 20.050781 24 23.160156 21.496094 23.847656 17.773438 L 20.078125 17.773438 C 19.542969 19.5 18.046875 20.691406 16.164062 20.691406 C 13.5625 20.691406 11.738281 18.695312 11.738281 16.015625 C 11.742188 13.304688 13.535156 11.308594 16.132812 11.308594 Z M 16.132812 11.308594 "/>
</g>
</svg>
